<?xml version="1.0" encoding="utf-8"?>
<!-- Generator: Adobe Illustrator 24.3.0, SVG Export Plug-In . SVG Version: 6.00 Build 0)  -->
<svg version="1.1" id="Layer_1" xmlns="http://www.w3.org/2000/svg" xmlns:xlink="http://www.w3.org/1999/xlink" x="0px" y="0px"
	 viewBox="0 0 320 51" style="enable-background:new 0 0 320 51;" xml:space="preserve">
<style type="text/css">
	.st0{fill:#E5E5E5;}
</style>
<g>
	<path class="st0" d="M37.96,39.07h-1.29l-0.39-2.11c-3.55,2.22-5.27,2.77-8.74,2.77c-6.94,0-11.62-4.13-11.62-10.26
		c0-9.24,8.03-17.08,17.47-17.08c3.24,0,5.03,0.66,6.83,2.54l1.48-1.87h1.33l-1.52,7.57h-1.29c-0.19-2.5-0.62-3.82-1.56-4.95
		c-1.05-1.29-2.61-1.99-4.41-1.99c-3.94,0-6.79,3.28-8.07,9.32l-1.33,6.24c-0.31,1.6-0.51,3-0.51,4.02c0,3.31,1.75,5.15,4.88,5.15
		c2.07,0,3.78-0.7,5.69-2.3c1.83-1.56,3.04-3.08,4.13-5.3h1.29L37.96,39.07z"/>
	<path class="st0" d="M72.24,22.85c0,9.13-8,16.89-17.39,16.89c-6.51,0-11.31-4.45-11.31-10.45c0-3.86,1.48-7.76,4.06-10.69
		c3.39-3.86,8.35-6.2,13.26-6.2C67.44,12.39,72.24,16.76,72.24,22.85z M52.23,30.26c-0.35,1.52-0.51,2.93-0.51,4.02
		c0,2.57,1.33,4.17,3.47,4.17c1.52,0,3.2-0.86,4.17-2.11c1.05-1.37,1.79-3.24,2.38-6.08l1.79-8.39c0.35-1.56,0.51-2.96,0.51-4.06
		c0-2.54-1.33-4.13-3.51-4.13c-1.48,0-3.16,0.86-4.13,2.11c-1.05,1.36-1.79,3.28-2.42,6.08L52.23,30.26z"/>
	<path class="st0" d="M97.74,15.4L84.83,39.07h-1.76L80.5,15.4l-4.02,18.8c-0.16,0.74-0.27,1.29-0.27,1.33l-0.08,0.82v0.08
		c0,1.01,0.7,1.48,2.26,1.48h0.55l-0.23,1.17h-7.8l0.23-1.17h0.58c2.3-0.04,2.92-0.7,3.47-3.71l4.25-19.97h-2.61l0.23-1.17h12.01
		l1.48,13.07l7.1-13.07h11.74l-0.23,1.17h-2.61l-5.03,23.67h2.61l-0.27,1.17H89.63l0.23-1.17h3.08L97.74,15.4z"/>
	<path class="st0" d="M114.36,14.23h-2.61l0.27-1.17h13.77l-0.23,1.17h-2.61L117.9,37.9h2.61l-0.27,1.17h-13.77l0.23-1.17h2.61
		L114.36,14.23z"/>
	<path class="st0" d="M131.48,15.79l-3.9,18.41c-0.16,0.74-0.27,1.29-0.27,1.33l-0.08,0.82v0.08c0,1.01,0.7,1.48,2.26,1.48h0.55
		l-0.23,1.17H122l0.23-1.17h0.58c2.3-0.04,2.92-0.7,3.47-3.71l3.74-17.67c0.19-0.9,0.23-1.13,0.23-1.36c0-0.66-0.43-0.94-1.44-0.94
		h-1.56l0.27-1.17h12.91l5.97,14.47l2.03-9.59c0.39-1.72,0.39-1.72,0.39-2.18c0-1.09-0.62-1.52-2.26-1.52h-0.58l0.27-1.17h7.8
		l-0.27,1.17h-0.55c-2.3,0.04-2.92,0.7-3.47,3.71l-4.48,21.14h-4.17L131.48,15.79z"/>
	<path class="st0" d="M176.05,34.62c-3.63,3.47-7.68,5.11-12.75,5.11c-6.75,0-10.84-3.94-10.84-10.41c0-9.05,7.96-16.93,17.08-16.93
		c2.69,0,4.13,0.47,6.67,2.15l1.87-1.48h1.33l-1.75,8.27h-1.33c0.04-0.31,0.04-0.62,0.04-0.74c0-3.98-2.61-6.9-6.12-6.9
		c-2.07,0-3.98,1.17-5.38,3.24c-0.98,1.52-1.56,3.24-2.46,7.57l-0.9,4.21c-0.55,2.5-0.86,4.8-0.86,6.24c0,2.11,1.17,3.51,2.89,3.51
		c1.17,0,2.38-0.7,3.04-1.75c0.62-1.01,0.74-1.29,1.44-4.56l0.55-2.73h-3.82l0.27-1.17h14.74l-0.23,1.17h-2.38L176.05,34.62z"/>
	<path class="st0" d="M211.66,20.15h-1.29c-0.16-1.48-0.35-2.26-0.86-3.2c-1.13-2.07-3.39-3.28-6.08-3.28
		c-2.77,0-4.76,1.44-4.76,3.51c0,1.33,0.9,2.18,3.16,2.96l4.41,1.52c3.78,1.29,5.26,2.92,5.26,5.81c0,2.57-1.13,5.54-2.96,7.8
		c-2.34,2.89-5.69,4.45-9.52,4.45c-2.92,0-4.99-0.9-6.86-3l-1.72,2.34h-1.29l1.75-8.27h1.29c0.16,1.6,0.31,2.34,0.7,3.35
		c1.01,2.61,3.55,4.25,6.59,4.25c3.47,0,6.08-2.07,6.08-4.84c0-1.4-0.9-2.34-3.08-3.12l-4.52-1.64c-3.63-1.33-5.42-3.28-5.42-5.85
		c0-2.15,1.01-4.6,2.65-6.55c2.26-2.65,5.19-4.02,8.62-4.02c2.96,0,4.95,0.86,6.47,2.77l1.56-2.11h1.33L211.66,20.15z"/>
	<path class="st0" d="M243.25,22.85c0,9.13-8,16.89-17.39,16.89c-6.51,0-11.31-4.45-11.31-10.45c0-3.86,1.48-7.76,4.06-10.69
		c3.39-3.86,8.35-6.2,13.26-6.2C238.45,12.39,243.25,16.76,243.25,22.85z M223.24,30.26c-0.35,1.52-0.51,2.93-0.51,4.02
		c0,2.57,1.33,4.17,3.47,4.17c1.52,0,3.2-0.86,4.17-2.11c1.05-1.37,1.79-3.24,2.38-6.08l1.79-8.39c0.35-1.56,0.51-2.96,0.51-4.06
		c0-2.54-1.33-4.13-3.51-4.13c-1.48,0-3.16,0.86-4.13,2.11c-1.05,1.36-1.79,3.28-2.42,6.08L223.24,30.26z"/>
	<path class="st0" d="M273.87,22.85c0,9.13-8,16.89-17.4,16.89c-6.51,0-11.31-4.45-11.31-10.45c0-3.86,1.48-7.76,4.06-10.69
		c3.39-3.86,8.35-6.2,13.26-6.2C269.07,12.39,273.87,16.76,273.87,22.85z M253.86,30.26c-0.35,1.52-0.51,2.93-0.51,4.02
		c0,2.57,1.33,4.17,3.47,4.17c1.52,0,3.2-0.86,4.17-2.11c1.05-1.37,1.79-3.24,2.38-6.08l1.79-8.39c0.35-1.56,0.51-2.96,0.51-4.06
		c0-2.54-1.33-4.13-3.51-4.13c-1.48,0-3.16,0.86-4.13,2.11c-1.05,1.36-1.79,3.28-2.42,6.08L253.86,30.26z"/>
	<path class="st0" d="M282.02,15.79l-3.9,18.41c-0.16,0.74-0.27,1.29-0.27,1.33l-0.08,0.82v0.08c0,1.01,0.7,1.48,2.26,1.48h0.55
		l-0.23,1.17h-7.8l0.23-1.17h0.58c2.3-0.04,2.93-0.7,3.47-3.71l3.74-17.67c0.2-0.9,0.23-1.13,0.23-1.36c0-0.66-0.43-0.94-1.44-0.94
		h-1.56l0.27-1.17h12.91l5.97,14.47l2.03-9.59c0.39-1.72,0.39-1.72,0.39-2.18c0-1.09-0.62-1.52-2.26-1.52h-0.58l0.27-1.17h7.8
		l-0.27,1.17h-0.55c-2.3,0.04-2.93,0.7-3.47,3.71l-4.49,21.14h-4.17L282.02,15.79z"/>
</g>
</svg>
