<?xml version="1.0" encoding="utf-8"?>
<!-- Generator: Adobe Illustrator 24.1.2, SVG Export Plug-In . SVG Version: 6.00 Build 0)  -->
<svg version="1.1" id="Outlines" xmlns="http://www.w3.org/2000/svg" xmlns:xlink="http://www.w3.org/1999/xlink" x="0px" y="0px"
	 viewBox="0 0 275.77 71.11" style="enable-background:new 0 0 275.77 71.11;" xml:space="preserve">
<style type="text/css">
	.st0{display:none;fill-rule:evenodd;clip-rule:evenodd;fill:#939598;}
	.st1{opacity:0.5;fill:#FFFFFF;}
	.st2{fill:#FFFFFF;}
</style>
<path class="st0" d="M165.06,9.66l-0.14-2.01l-2.44,0.11l1.87,20.52l-6.87,8.03l0.09,1.78l2.1,0.09l1.53,13.86l-1.7,2.97l2.8,4.38
	l2.08,0.08l18.14,23.63l-13.95,17.34l0.66,1.42l1.81,0.01l13.48-16.18l4.55,5.93l-26.59,35.3l0.55,2.06l2.29,0.05l26.23-34.18
	l26.23,34.18l2.29-0.05l0.55-2.06l-26.59-35.3l4.55-5.93l13.48,16.18l1.81-0.01l0.66-1.42l-13.95-17.34l18.14-23.63l2.08-0.08
	l2.8-4.38l-1.7-2.97l1.53-13.86l2.1-0.09l0.09-1.78l-6.87-8.03l1.87-20.52l-2.44-0.11l-0.14,2.01
	C200.45,10.6,182.63,10.6,165.06,9.66L165.06,9.66z M191.54,88.35l-4.38-5.82l4.38-5.26l4.38,5.26L191.54,88.35L191.54,88.35z
	 M191.54,71.9L178.4,55.57c8.82,0.21,17.46,0.21,26.28,0L191.54,71.9L191.54,71.9z M169.3,43.85l-0.26-1.13l-0.88-0.06l-0.76-15.42
	h48.3l-0.76,15.42l-0.88,0.06l-0.26,1.13C198.67,44.65,184.41,44.65,169.3,43.85L169.3,43.85z M197.94,79.85l-4.2-5.22l15.99-19.19
	c3.93-0.11,6.75-0.2,6.75-0.2L197.94,79.85L197.94,79.85z M218.21,33.98l2.13,2.02l-1.23,11.22l-1.82-3.19L218.21,33.98
	L218.21,33.98z M185.14,79.85L166.6,55.24c0,0,2.82,0.09,6.75,0.2l15.99,19.19L185.14,79.85L185.14,79.85z M164.87,33.98l0.91,10.05
	l-1.82,3.19l-1.23-11.22L164.87,33.98z"/>
<g>
	<path class="st1" d="M11.74,67.04c10.73-0.12,9.35-1.35,9.27-9.06c-0.09-8.97-0.09-10.06-0.09-10.06s-10.46,0-14.41,0
		c-3.96,0-7.14-0.7-6.4-4.46c1.94-9.84,11.93-8.25,15.36-8.2c6.4,0.1,10.42-0.01,16.28-0.14c9.07-0.2,9.79-2.88,12.61-12.87
		c3.57-12.66,4.98-16.77,8.11-20.23c2.34-2.59,11.25-3.46,10.1,2.15c-0.89,4.32-5.98,22.74-8.97,32.54
		c-2.69,8.82-7.35,11.02-12.62,11.02c-5.27,0-14.13,0.18-14.13,0.18c0,0.06,0-0.85,0,1.54l5.22,5.7h11.82c0.7,0,1.27,0.55,1.27,1.23
		s-0.57,1.23-1.27,1.23H31.51c-0.36,0-0.7-0.15-0.94-0.41l-3.72-4.08c0,1.23-0.05,2.7,0,4.44c0.2,7.23-0.86,9.3,9.68,9.47
		c4.98,0.08,9.85-1.04,10.1,4.07H1.42C1.53,66.38,4.91,67.11,11.74,67.04z"/>
	<g>
		<path class="st2" d="M77.5,50.52v1.17h-6.59V68.7h-3.06V51.69h-6.59v-1.17H77.5z"/>
		<path class="st2" d="M91.23,59.98v8.72h-3.06V50.52h3.06v8.29h9.14v-8.29h3.06V68.7h-3.06v-8.72H91.23z"/>
		<path class="st2" d="M128.48,50.52v1.17h-9.58v6.51h6.4v1.17h-6.4v8.17h9.58v1.17h-12.64V50.52H128.48z"/>
		<path class="st2" d="M158.23,59.67c0,1.28,0.19,2.42,0.57,3.43c0.38,1.01,0.9,1.86,1.57,2.56c0.67,0.7,1.46,1.23,2.38,1.6
			c0.92,0.37,1.91,0.56,2.99,0.56c0.64,0,1.25-0.12,1.84-0.37c0.59-0.25,1.14-0.57,1.65-0.97c0.51-0.4,0.96-0.85,1.37-1.35
			c0.41-0.5,0.73-1.01,0.99-1.52l1.28,0.83c-0.37,0.61-0.81,1.2-1.32,1.77c-0.51,0.56-1.1,1.06-1.77,1.49
			c-0.67,0.43-1.42,0.78-2.27,1.04c-0.85,0.26-1.79,0.39-2.83,0.39c-1.51,0-2.87-0.25-4.11-0.76c-1.23-0.51-2.29-1.19-3.16-2.05
			c-0.88-0.86-1.55-1.86-2.03-3.01c-0.48-1.15-0.72-2.36-0.72-3.64c0-1.28,0.25-2.5,0.74-3.66c0.49-1.16,1.18-2.17,2.07-3.05
			c0.89-0.88,1.96-1.57,3.21-2.09c1.25-0.52,2.64-0.78,4.16-0.78c0.96,0,1.85,0.13,2.66,0.39c0.81,0.26,1.56,0.61,2.23,1.04
			c0.67,0.43,1.27,0.93,1.8,1.49c0.53,0.56,0.98,1.15,1.34,1.77l-1.32,0.89c-0.76-1.47-1.61-2.55-2.55-3.24
			c-0.94-0.69-2.02-1.03-3.24-1.03c-1.06,0-2.04,0.19-2.96,0.57c-0.92,0.38-1.71,0.93-2.39,1.64c-0.68,0.72-1.21,1.58-1.6,2.6
			C158.42,57.25,158.23,58.39,158.23,59.67z"/>
		<path class="st2" d="M187.58,59.98v8.72h-3.06V50.52h3.06v8.29h9.14v-8.29h3.06V68.7h-3.06v-8.72H187.58z"/>
		<path class="st2" d="M219.49,50.11l8.55,18.6h-3.1l-2.78-6.07h-7.79l-2.87,6.07h-1.54l8.77-18.6H219.49z M214.91,61.46h6.7
			l-3.3-7.19L214.91,61.46z"/>
		<path class="st2" d="M238.27,50.52h3.06V68.7h-3.06V50.52z"/>
		<path class="st2" d="M253.75,50.52h6.28c1.1,0,2.06,0.12,2.88,0.35c0.82,0.23,1.51,0.56,2.07,0.98c0.55,0.42,0.97,0.92,1.24,1.5
			c0.28,0.58,0.42,1.22,0.42,1.9c0,0.56-0.11,1.09-0.32,1.58c-0.22,0.49-0.52,0.93-0.91,1.33c-0.39,0.39-0.87,0.74-1.41,1.03
			c-0.55,0.29-1.15,0.51-1.8,0.67l6.62,8.83h-3.55l-6.31-8.55h-2.14v8.55h-3.06V50.52z M256.81,59.24h1.75
			c0.69,0,1.32-0.09,1.9-0.27c0.58-0.18,1.09-0.44,1.51-0.78c0.43-0.34,0.76-0.75,1-1.23c0.24-0.48,0.36-1.02,0.36-1.61
			c0-0.54-0.09-1.04-0.28-1.49c-0.19-0.45-0.45-0.84-0.79-1.17c-0.34-0.33-0.74-0.58-1.21-0.77c-0.47-0.18-0.99-0.28-1.55-0.28
			h-2.69V59.24z"/>
	</g>
	<g>
		<path class="st2" d="M9.74,8.95h2.85v16.97H9.74V8.95z"/>
		<path class="st2" d="M20.37,8.95h1.59l11.12,12.4h0.12V8.95h1.25v17.38h-0.66L21.75,12.52h-0.1v13.4h-1.28V8.95z"/>
	</g>
	<g>
		<path class="st2" d="M97.77,11.61c0-7.69-7.47-8.08-12.3-8.08H66.73l-0.27,1.04h3.57L59.92,41.16h-3.35l-0.27,1.04h20.93
			c13.84,0,17.47-6.48,17.47-11.54c0-5.27-4.56-8.02-10.38-8.51v-0.11C91.62,21.88,97.77,18.15,97.77,11.61z M79.26,39.29
			c-2.25,1.87-4.89,1.87-7.97,1.87l5.11-18.51h1.59c3.13,0,5.49,1.81,5.49,5.27C83.49,33.25,81.51,37.43,79.26,39.29z M83.43,19.47
			c-1.65,1.7-3.79,2.14-6.76,2.14l4.67-17.03h1.59c2.69,0,4.28,0.99,4.28,4.5C87.22,12.98,85.19,17.65,83.43,19.47z"/>
		<path class="st2" d="M182.55,16.39c-2.64,0-4.45,1.87-4.45,4.39c0,5.38,5.33,3.35,5.33,6.76c0,5.66-10,12.8-12.85,12.8
			c-0.93,0-1.48-0.71-1.48-1.59c0-0.82,0.44-2.64,1.15-5.27l4.28-15.99h-10l-4.67,16.15c-0.82,2.86-3.24,6.7-6.65,6.7
			c-0.88,0-1.76-0.66-1.76-1.76c0-0.88,0.22-1.92,0.93-4.5l5-17.96c-3.19,1.37-7.75,1.37-9.94,1.37h-3.68h-4.01l3.57-12.3
			c-3.57,2.14-7.58,3.52-11.54,4.61l-2.14,7.69h-3.79l-0.33,1.04h3.85l-1.94,6.86c-1.57,4.62-4.81,9.23-7.2,11.43l0,0
			c-2.43,2.24-6.78,4.78-10.16,4.78c-2.36,0-4.23-1.21-4.23-3.9c0-1.15,0.22-2.64,0.6-4.12l0.66-2.25c0.88,0.11,2.8,0.27,5.22,0.27
			c5.27,0,11.87-2.14,11.87-8.35c0-5.22-5.6-7.14-10.11-7.14c-9.23,0-17.8,6.43-17.8,16.26c0,7.47,5.44,10.6,12.25,10.6
			c4.45,0,8.84-2,12.01-5.04c2.11-1.75,3.74-3.78,4.96-5.7c-0.53,1.97-1.18,4.59-1.18,5.96c0,3.24,2.91,4.78,5.82,4.78
			c5.69,0,8.15-4.13,9.33-5.77c0.21-0.29,0.17-0.7-0.11-0.93L139.04,36c-0.93,1.21-2.47,3.68-4.17,3.68c-0.49,0-0.88-0.49-0.88-0.99
			c0-0.27,0.22-1.54,0.55-2.58l5-17.58h3.85h3.08l-3.35,12.52c-0.99,3.74-1.21,5.05-1.21,6.43c0,4.07,4.01,5.49,7.64,5.49
			c3.52,0,6.98-1.65,10-5.6c0.33,3.68,2.36,5.6,5.93,5.6c9.01,0,22.25-11.87,22.25-21.09C187.71,18.64,185.9,16.39,182.55,16.39z
			 M110.13,20.51c0.49-1.81,1.48-3.35,3.13-3.35c1.65,0,2.36,1.1,2.36,2.75c0,1.48-1.65,6.59-2.36,7.97
			c-0.82,1.65-1.98,2.69-3.63,2.69c-0.77,0-1.59-0.05-2.25-0.16L110.13,20.51z"/>
		<path class="st2" d="M274.89,36.11c-0.6,1.21-2.64,3.9-4.07,3.9c-0.6,0-0.88-0.33-0.88-1.37c0-2.58,4.83-12.74,4.83-17.25
			c0-3.57-2.91-5.27-6.04-5.27c-5.05,0-9.34,4.61-11.54,8.73h-0.11l2.2-8.73c-3.19,1.37-7.75,1.37-9.94,1.37h-3.63l-0.44,1.04h3.08
			l-1.46,5.33c-1.3,5.09-5,10.49-7.65,12.94c-2.42,2.24-6.79,4.8-10.18,4.8c-2.36,0-4.23-1.21-4.23-3.9c0-1.15,0.22-2.64,0.6-4.12
			l0.66-2.25c0.88,0.11,2.8,0.27,5.22,0.27c5.27,0,11.87-2.14,11.87-8.35c0-5.22-5.6-7.14-10.11-7.14
			c-7.74,0-15.01,4.52-17.16,11.77l0-0.01c0,0.02-0.01,0.04-0.01,0.06c-0.09,0.32-0.18,0.64-0.25,0.96
			c-1.12,4.28-1.76,5.64-4.23,7.92l0,0c-2.43,2.24-6.78,4.78-10.16,4.78c-2.36,0-4.23-1.21-4.23-3.9c0-1.15,0.22-2.64,0.6-4.12
			l0.66-2.25c0.88,0.11,2.8,0.27,5.22,0.27c5.27,0,11.87-2.14,11.87-8.35c0-5.22-5.6-7.14-10.11-7.14c-9.23,0-17.8,6.43-17.8,16.26
			c0,7.47,5.44,10.6,12.25,10.6c4.44,0,8.82-1.98,11.98-5.01c1.81-1.49,2.96-2.82,3.67-3.97c0.74,6.3,5.85,8.98,12.15,8.98
			c4.43,0,8.82-1.98,11.97-5.01c2.24-1.84,3.92-4,5.17-6.02l-2.81,10.26h10.38l2.58-9.56c1.7-6.21,6.98-13.24,9.17-13.24
			c0.66,0,1.21,0.44,1.21,1.32c0,1.48-4.83,13.73-4.83,16.59c0,3.9,2.42,5.66,5.82,5.66c4.39,0,7.75-2.53,9.56-6.37L274.89,36.11z
			 M229.13,20.51c0.49-1.81,1.48-3.35,3.13-3.35s2.36,1.1,2.36,2.75c0,1.48-1.65,6.59-2.36,7.97c-0.82,1.65-1.98,2.69-3.63,2.69
			c-0.77,0-1.59-0.05-2.25-0.16L229.13,20.51z M201.33,20.51c0.49-1.81,1.48-3.35,3.13-3.35c1.65,0,2.36,1.1,2.36,2.75
			c0,1.48-1.65,6.59-2.36,7.97c-0.82,1.65-1.98,2.69-3.63,2.69c-0.77,0-1.59-0.05-2.25-0.16L201.33,20.51z"/>
	</g>
</g>
</svg>
